<svg width="501" height="237" viewBox="0 0 501 237" fill="none" xmlns="http://www.w3.org/2000/svg">
<g filter="url(#filter0_f_1_357)">
<ellipse cx="402.42" cy="96.4291" rx="27.6438" ry="23.2789" transform="rotate(1.07834 402.42 96.4291)" fill="url(#paint0_linear_1_357)" fill-opacity="0.29"/>
</g>
<path d="M13.0663 236.933C6.10184 237.378 0.0574209 232.09 0.0060547 225.112C-0.396994 170.354 19.3343 117.178 55.6979 75.8456C92.0616 34.5131 142.291 8.16891 196.654 1.59357C203.582 0.755585 209.597 6.07714 210.042 13.0416L210.073 13.522C210.519 20.4865 205.224 26.4518 198.302 27.3408C150.759 33.4468 106.885 56.6534 75.0335 92.8567C43.1824 129.06 25.7537 175.533 25.7535 223.467C25.7535 230.445 20.5112 236.457 13.5467 236.902L13.0663 236.933Z" fill="#89DDEE"/>
<path d="M214.572 12.804C214.276 5.83161 219.693 -0.0976493 226.671 0.00121893C269.015 0.601168 310.327 13.2237 345.774 36.3924C351.616 40.2105 352.794 48.1546 348.652 53.7712L348.366 54.1586C344.224 59.7752 336.333 60.9332 330.464 57.1583C299.783 37.4259 264.231 26.5633 227.761 25.7781C220.784 25.6278 214.888 20.2574 214.592 13.285L214.572 12.804Z" fill="#89DDEE"/>
<path d="M214.572 12.804C214.276 5.83161 219.693 -0.0976493 226.671 0.00121893C269.015 0.601168 310.327 13.2237 345.774 36.3924C351.616 40.2105 352.794 48.1546 348.652 53.7712L348.366 54.1586C344.224 59.7752 336.333 60.9332 330.464 57.1583C299.783 37.4259 264.231 26.5633 227.761 25.7781C220.784 25.6278 214.888 20.2574 214.592 13.285L214.572 12.804Z" fill="#8FBEED"/>
<path d="M352.659 56.8015C356.933 51.2852 364.897 50.252 370.163 54.8315C390.18 72.2391 406.94 93.073 419.654 116.355C422.999 122.48 420.284 130.037 413.98 133.031L413.545 133.237C407.241 136.231 399.739 133.523 396.349 127.423C385.423 107.762 371.222 90.1086 354.359 75.224C349.126 70.6059 348.089 62.6984 352.364 57.182L352.659 56.8015Z" fill="url(#paint1_linear_1_357)"/>
<path d="M414.899 134.992C421.233 132.064 428.778 134.813 431.344 141.303C441.895 167.988 447.209 196.458 446.994 225.153C446.941 232.131 440.896 237.417 433.932 236.971L433.452 236.94C426.487 236.494 421.246 230.483 421.247 223.504C421.25 199.095 416.733 174.893 407.925 152.128C405.407 145.62 408.127 138.123 414.462 135.194L414.899 134.992Z" fill="#D0E2FF"/>
<circle cx="391.717" cy="96.3296" r="13.477" fill="#F9F9F9" stroke="url(#paint2_linear_1_357)" stroke-width="8"/>
<defs>
<filter id="filter0_f_1_357" x="304.777" y="3.14844" width="195.285" height="186.562" filterUnits="userSpaceOnUse" color-interpolation-filters="sRGB">
<feFlood flood-opacity="0" result="BackgroundImageFix"/>
<feBlend mode="normal" in="SourceGraphic" in2="BackgroundImageFix" result="shape"/>
<feGaussianBlur stdDeviation="35" result="effect1_foregroundBlur_1_357"/>
</filter>
<linearGradient id="paint0_linear_1_357" x1="374.776" y1="73.1501" x2="432.605" y2="77.5467" gradientUnits="userSpaceOnUse">
<stop stop-color="#1952F1"/>
<stop offset="1" stop-color="#418DF8"/>
</linearGradient>
<linearGradient id="paint1_linear_1_357" x1="349.706" y1="51.9473" x2="424.58" y2="56.0946" gradientUnits="userSpaceOnUse">
<stop stop-color="#1952F1"/>
<stop offset="1" stop-color="#418DF8"/>
</linearGradient>
<linearGradient id="paint2_linear_1_357" x1="382.24" y1="86.8525" x2="402.099" y2="88.1239" gradientUnits="userSpaceOnUse">
<stop stop-color="#1952F1"/>
<stop offset="1" stop-color="#418DF8"/>
</linearGradient>
</defs>
</svg>
